<?xml version="1.0" encoding="UTF-8"?>
<svg version="1.1" xmlns="http://www.w3.org/2000/svg" width="64" height="64">
<path d="M0 0 C5.92568802 4.26513053 10.2264274 9.34407144 12.03515625 16.46484375 C12.86251119 24.38132415 13.12901024 31.80614948 8.5859375 38.6015625 C4.17854476 43.89709483 -0.43934276 47.24863587 -6.96484375 49.46484375 C-8.28484375 49.46484375 -9.60484375 49.46484375 -10.96484375 49.46484375 C-10.96484375 42.86484375 -10.96484375 36.26484375 -10.96484375 29.46484375 C-8.65484375 29.46484375 -6.34484375 29.46484375 -3.96484375 29.46484375 C-3.96484375 28.14484375 -3.96484375 26.82484375 -3.96484375 25.46484375 C-6.27484375 25.13484375 -8.58484375 24.80484375 -10.96484375 24.46484375 C-11.08984375 16.71484375 -11.08984375 16.71484375 -9.96484375 14.46484375 C-7.64327778 14.05755147 -5.30796505 13.72045698 -2.96484375 13.46484375 C-2.96484375 11.81484375 -2.96484375 10.16484375 -2.96484375 8.46484375 C-6.92484375 9.12484375 -10.88484375 9.78484375 -14.96484375 10.46484375 C-15.62484375 15.08484375 -16.28484375 19.70484375 -16.96484375 24.46484375 C-19.27484375 24.46484375 -21.58484375 24.46484375 -23.96484375 24.46484375 C-23.96484375 26.11484375 -23.96484375 27.76484375 -23.96484375 29.46484375 C-21.65484375 29.46484375 -19.34484375 29.46484375 -16.96484375 29.46484375 C-16.96484375 36.06484375 -16.96484375 42.66484375 -16.96484375 49.46484375 C-24.71554546 48.35760065 -29.60683558 46.42762335 -34.77734375 40.52734375 C-40.44623028 32.59090261 -40.83575984 26.04492069 -39.96484375 16.46484375 C-38.31529415 8.8769156 -33.29080191 3.73333008 -26.96484375 -0.53515625 C-18.68607045 -4.00252788 -8.05270771 -4.22955302 0 0 Z " fill="#3C2E2E" transform="translate(45.96484375,8.53515625)"/>
</svg>
