<?xml version="1.0" encoding="UTF-8"?>
<svg version="1.1" xmlns="http://www.w3.org/2000/svg" width="64" height="64">
<path d="M0 0 C2.20838731 0.00850782 4.41418243 -0.02027097 6.62231445 -0.05200195 C8.03832931 -0.05361442 9.4543487 -0.05303556 10.87036133 -0.05004883 C12.1477417 -0.05190186 13.42512207 -0.05375488 14.74121094 -0.05566406 C19.8950993 0.67491748 22.88623712 2.71429296 26.12841797 6.74121094 C28.33519319 11.92215239 27.75921853 17.61831597 27.7265625 23.16552734 C27.71805468 25.37391465 27.74683347 27.57970978 27.77856445 29.7878418 C27.78017692 31.20385665 27.77959806 32.61987605 27.77661133 34.03588867 C27.77939087 35.95195923 27.77939087 35.95195923 27.78222656 37.90673828 C27.05164502 43.06062664 25.01226954 46.05176447 20.98535156 49.29394531 C15.80441011 51.50072054 10.10824653 50.92474587 4.56103516 50.89208984 C2.35264785 50.88358202 0.14685272 50.91236081 -2.0612793 50.9440918 C-3.47729415 50.94570426 -4.89331355 50.94512541 -6.30932617 50.94213867 C-8.22539673 50.94491821 -8.22539673 50.94491821 -10.18017578 50.94775391 C-15.33406414 50.21717237 -18.32520197 48.17779688 -21.56738281 44.15087891 C-23.77415804 38.96993746 -23.19818337 33.27377387 -23.16552734 27.7265625 C-23.15701952 25.51817519 -23.18579831 23.31238007 -23.2175293 21.10424805 C-23.21914176 19.68823319 -23.21856291 18.2722138 -23.21557617 16.85620117 C-23.2174292 15.5788208 -23.21928223 14.30144043 -23.22119141 12.98535156 C-22.49060987 7.8314632 -20.45123438 4.84032538 -16.42431641 1.59814453 C-11.24337496 -0.60863069 -5.54721137 -0.03265603 0 0 Z M16.28051758 9.44604492 C16.28051758 10.10604492 16.28051758 10.76604492 16.28051758 11.44604492 C16.94051758 11.44604492 17.60051758 11.44604492 18.28051758 11.44604492 C18.28051758 10.78604492 18.28051758 10.12604492 18.28051758 9.44604492 C17.62051758 9.44604492 16.96051758 9.44604492 16.28051758 9.44604492 Z M-7.71948242 17.44604492 C-10.54554116 21.68513302 -10.37960489 25.46728995 -9.71948242 30.44604492 C-7.66840654 33.84092914 -6.01463621 35.24927573 -2.71948242 37.44604492 C2.10694573 38.14955818 6.06417207 38.18092033 10.28051758 35.63354492 C14.26200065 31.27879781 14.7126667 28.5867599 14.60473633 22.89135742 C14.14819989 19.4480826 12.81211113 17.76064474 10.28051758 15.44604492 C4.35914057 11.49846025 -2.86603005 12.13758139 -7.71948242 17.44604492 Z " fill="#3C2E2E" transform="translate(29.719482421875,6.553955078125)"/>
<path d="M0 0 C3.55247432 0.87379409 4.94828114 2.4927342 6.9375 5.4765625 C7.63597125 8.3162489 7.63597125 10.6368761 6.9375 13.4765625 C4.94828114 16.4603908 3.55247432 18.07933091 0 18.953125 C-3.92313492 19.23547183 -5.73362371 18.69581336 -9.0625 16.4765625 C-11.28175086 13.14768621 -11.82140933 11.33719742 -11.5390625 7.4140625 C-10.07519871 1.46261629 -5.59135555 -0.40240816 0 0 Z " fill="#3C2E2E" transform="translate(34.0625,22.5234375)"/>
</svg>
