<?xml version="1.0" encoding="UTF-8"?>
<svg version="1.1" xmlns="http://www.w3.org/2000/svg" width="64" height="64">
<path d="M0 0 C5.93431181 4.27133768 10.20568179 9.34232669 12.03515625 16.46484375 C13.04681569 25.45263916 12.4657593 33.03709197 7.03515625 40.46484375 C2.2754769 45.78980568 -3.04719702 49.03485813 -10.16796875 49.81640625 C-19.36512824 50.19464441 -26.15160915 48.8299187 -33.0625 42.5625 C-39.50376135 35.67154073 -40.45086305 29.20915183 -40.265625 19.9375 C-39.51985175 11.32720885 -35.75963599 6.67407018 -29.37890625 1.09375 C-21.20769726 -4.41983277 -8.67190296 -4.5547752 0 0 Z M-11.83984375 14.27734375 C-13.19351776 16.49951539 -13.19351776 16.49951539 -12.96484375 19.46484375 C-14.38275783 19.01038411 -15.79912421 18.55109431 -17.21484375 18.08984375 C-18.00375 17.83460937 -18.79265625 17.579375 -19.60546875 17.31640625 C-21.83112333 16.51310708 -23.87416047 15.56772713 -25.96484375 14.46484375 C-25.30899186 18.07476754 -25.30899186 18.07476754 -23.96484375 21.46484375 C-24.62484375 21.46484375 -25.28484375 21.46484375 -25.96484375 21.46484375 C-24.65588655 24.58681853 -24.65588655 24.58681853 -21.96484375 26.46484375 C-21.96484375 27.45484375 -21.96484375 28.44484375 -21.96484375 29.46484375 C-20.97484375 30.12484375 -19.98484375 30.78484375 -18.96484375 31.46484375 C-20.61484375 32.12484375 -22.26484375 32.78484375 -23.96484375 33.46484375 C-23.96484375 34.12484375 -23.96484375 34.78484375 -23.96484375 35.46484375 C-18.36180334 37.04518848 -14.03154157 36.09336319 -8.96484375 33.46484375 C-4.129918 29.66670675 -2.25374508 25.43789828 -1.19140625 19.48046875 C-0.90899391 17.30602578 -0.90899391 17.30602578 -0.96484375 14.46484375 C-4.78695293 11.91677096 -8.26886276 10.82539546 -11.83984375 14.27734375 Z " fill="#3C2E2E" transform="translate(45.96484375,8.53515625)"/>
</svg>
